<svg xmlns="http://www.w3.org/2000/svg" viewBox="0 0 512 512" width="512" height="512">
  <rect width="512" height="512" rx="96" fill="#0b1220"/>

  <!-- M-mode trace texture -->
  <path d="M 50 185 Q 90 165 130 185 T 210 190 Q 250 170 290 185 T 370 188 Q 410 175 462 185"
        fill="none" stroke="#aab4c8" stroke-width="9" stroke-linecap="round" stroke-linejoin="round" opacity="0.9"/>
  <path d="M 50 330 Q 95 350 140 332 T 225 338 Q 270 352 315 335 T 400 333 Q 430 344 462 332"
        fill="none" stroke="#717d93" stroke-width="9" stroke-linecap="round" stroke-linejoin="round" opacity="0.75"/>

  <!-- caliper measurement -->
  <line x1="256" y1="178" x2="256" y2="334" stroke="#fbbf24" stroke-width="6" stroke-dasharray="16 14" stroke-linecap="round"/>
  <g stroke="#fbbf24" stroke-width="14" stroke-linecap="round">
    <line x1="228" y1="178" x2="284" y2="178"/>
    <line x1="256" y1="150" x2="256" y2="206"/>
    <line x1="228" y1="334" x2="284" y2="334"/>
    <line x1="256" y1="306" x2="256" y2="362"/>
  </g>
</svg>
